<svg width="77" height="77" viewBox="0 0 77 77" fill="none" xmlns="http://www.w3.org/2000/svg">
<g clip-path="url(#clip0)">
<path d="M76.9587 48.1886C76.7668 43.7769 75.9996 38.8856 74.8487 34.2821C73.6978 29.8704 72.2592 25.7464 70.5329 22.5814C63.8194 10.7849 56.5305 12.6071 47.803 14.9089C45.0217 15.5802 42.0486 16.3475 38.9796 16.6352H38.0205C34.9515 16.3475 31.9784 15.5802 29.1971 14.9089C20.4695 12.703 13.1806 10.7849 6.46714 22.6774C4.74082 25.8423 3.20631 29.9663 2.15134 34.378C1.00046 38.9815 0.233201 43.8728 0.0413869 48.2845C-0.150427 53.1757 0.329107 56.7243 1.38408 59.2179C2.43906 61.5196 3.97357 62.9582 5.98761 63.5337C7.80984 64.0132 9.91979 63.8214 12.1256 62.8623C15.866 61.3278 20.1818 58.067 24.4017 54.1348C27.3748 51.2576 32.9374 49.819 38.5 49.819C44.0626 49.819 49.6252 51.2576 52.5983 54.1348C56.8182 58.067 61.134 61.3278 64.8744 62.8623C67.0803 63.7255 69.1902 64.0132 71.0124 63.5337C72.9306 62.9582 74.561 61.6155 75.616 59.122C76.6709 56.7243 77.1505 53.1757 76.9587 48.1886ZM72.3551 57.7793C71.7797 59.122 71.0124 59.8892 70.0534 60.1769C68.9984 60.4647 67.6557 60.2729 66.1212 59.6974C62.7645 58.3547 58.8323 55.3816 54.996 51.7371C51.3515 48.0927 44.9258 46.2705 38.5 46.2705C32.0743 46.2705 25.6485 48.0927 21.9081 51.5453C17.976 55.1898 14.0438 58.2588 10.783 59.5056C9.24844 60.081 7.90575 60.3688 6.85077 59.9851C5.8917 59.6974 5.12445 58.9302 4.54901 57.5875C3.78175 55.7652 3.39813 52.7921 3.58994 48.3804C3.78175 44.2564 4.4531 39.557 5.60398 35.1452C6.65896 31.0213 8.00165 27.185 9.63207 24.3078C14.9069 14.813 21.045 16.3475 28.3339 18.2656C31.307 19.0329 34.376 19.8001 37.7328 20.0879C37.8287 20.0879 37.8287 20.0879 37.9246 20.0879H38.9796C39.0755 20.0879 39.0755 20.0879 39.1714 20.0879C42.624 19.8001 45.693 19.0329 48.6662 18.2656C55.9551 16.4434 62.0931 14.813 67.368 24.3078C68.9984 27.185 70.3411 30.9253 71.3961 35.1452C72.451 39.557 73.2183 44.1605 73.4101 48.3804C73.6019 52.7921 73.2183 55.7652 72.3551 57.7793Z" fill="#FFD369"/>
<path d="M29.6767 29.4868C28.7177 28.6237 27.5668 27.9523 26.2241 27.8564C26.1282 26.6096 25.5527 25.3628 24.6896 24.4997L24.5937 24.4038C23.5387 23.3488 22.196 22.7733 20.6615 22.7733C19.127 22.7733 17.6884 23.4447 16.7293 24.4038C15.8661 25.2669 15.1948 26.5137 15.0989 27.8564C13.7562 27.9523 12.6053 28.5278 11.6462 29.3909L11.5503 29.4868C10.4954 30.5418 9.91992 31.8845 9.91992 33.419C9.91992 34.9535 10.5913 36.3921 11.5503 37.3512C12.5094 38.3103 13.6603 38.8857 15.0989 38.9816C15.1948 40.3243 15.7702 41.5711 16.7293 42.4342C17.7843 43.4892 19.127 44.0647 20.6615 44.0647C22.196 44.0647 23.6346 43.3933 24.5937 42.4342C25.4568 41.4752 26.1282 40.3243 26.2241 38.9816C27.5668 38.8857 28.8136 38.3103 29.6767 37.3512C30.7317 36.2962 31.3071 34.9535 31.3071 33.419C31.3071 31.8845 30.6358 30.4459 29.6767 29.4868ZM27.2791 34.8576C26.8954 35.2412 26.4159 35.433 25.8405 35.433H24.4978C23.5387 35.433 22.6755 36.2003 22.6755 37.2553V38.5021C22.6755 39.0775 22.4837 39.557 22.1001 39.9407C21.7165 40.3243 21.2369 40.5161 20.6615 40.5161C20.086 40.5161 19.6065 40.3243 19.2229 39.9407C18.8393 39.557 18.6474 39.0775 18.6474 38.5021V37.1594C18.6474 36.2003 17.8802 35.3371 16.8252 35.3371H15.4825C14.9071 35.3371 14.4275 35.1453 14.0439 34.7617C13.7562 34.474 13.4685 33.9944 13.4685 33.419C13.4685 32.8436 13.6603 32.364 14.0439 31.9804C14.0439 31.9804 14.0439 31.9804 14.1398 31.8845C14.5234 31.5968 15.003 31.405 15.4825 31.405H16.8252C17.7843 31.405 18.6474 30.6377 18.6474 29.5827V28.24C18.6474 27.6646 18.8393 27.1851 19.2229 26.8014C19.6065 26.4178 20.086 26.226 20.6615 26.226C21.2369 26.226 21.7165 26.4178 22.1001 26.8014C22.1001 26.8014 22.1001 26.8014 22.196 26.8973C22.4837 27.281 22.6755 27.7605 22.6755 28.24V29.5827C22.6755 30.5418 23.4428 31.405 24.4978 31.405H25.8405C26.4159 31.405 26.8954 31.5968 27.2791 31.9804C27.6627 32.364 27.8545 32.8436 27.8545 33.419C27.8545 33.9944 27.6627 34.474 27.2791 34.8576Z" fill="#FFD369"/>
<path d="M55.188 29.9664C57.0419 29.9664 58.5448 28.4635 58.5448 26.6096C58.5448 24.7558 57.0419 23.2529 55.188 23.2529C53.3342 23.2529 51.8313 24.7558 51.8313 26.6096C51.8313 28.4635 53.3342 29.9664 55.188 29.9664Z" fill="#FFD369"/>
<path d="M55.188 43.5851C57.0419 43.5851 58.5448 42.0822 58.5448 40.2283C58.5448 38.3745 57.0419 36.8716 55.188 36.8716C53.3342 36.8716 51.8313 38.3745 51.8313 40.2283C51.8313 42.0822 53.3342 43.5851 55.188 43.5851Z" fill="#FFD369"/>
<path d="M48.3787 36.7757C50.2326 36.7757 51.7354 35.2728 51.7354 33.4189C51.7354 31.5651 50.2326 30.0622 48.3787 30.0622C46.5248 30.0622 45.022 31.5651 45.022 33.4189C45.022 35.2728 46.5248 36.7757 48.3787 36.7757Z" fill="#FFD369"/>
<path d="M61.9974 36.7757C63.8512 36.7757 65.3541 35.2728 65.3541 33.4189C65.3541 31.5651 63.8512 30.0622 61.9974 30.0622C60.1435 30.0622 58.6406 31.5651 58.6406 33.4189C58.6406 35.2728 60.1435 36.7757 61.9974 36.7757Z" fill="#FFD369"/>
</g>
<defs>
<clipPath id="clip0">
<rect width="77" height="77" fill="white"/>
</clipPath>
</defs>
</svg>
