<svg width="491" height="491" viewBox="0 0 491 491" fill="none" xmlns="http://www.w3.org/2000/svg">
<g clip-path="url(#clip0)">
<path d="M394.667 373.333C365.27 373.333 341.334 397.269 341.334 426.666C341.334 456.063 365.269 480 394.667 480C424.065 480 448 456.064 448 426.666C448 397.268 424.064 373.333 394.667 373.333ZM394.667 458.666C377.024 458.666 362.667 444.309 362.667 426.666C362.667 409.023 377.024 394.666 394.667 394.666C412.31 394.666 426.667 409.023 426.667 426.666C426.667 444.309 412.309 458.666 394.667 458.666Z" fill="white"/>
<path d="M181.333 373.333C151.936 373.333 128 397.269 128 426.666C128 456.063 151.936 480 181.333 480C210.73 480 234.666 456.064 234.666 426.667C234.666 397.27 210.731 373.333 181.333 373.333ZM181.333 458.666C163.69 458.666 149.333 444.309 149.333 426.666C149.333 409.023 163.69 394.666 181.333 394.666C198.976 394.666 213.333 409.023 213.333 426.666C213.333 444.309 198.976 458.666 181.333 458.666Z" fill="white"/>
<path d="M437.333 330.666H191.125C165.802 330.666 143.808 312.639 138.837 287.786L85.12 19.242C84.117 14.25 79.744 10.666 74.667 10.666H10.667C4.779 10.666 0 15.445 0 21.333C0 27.221 4.779 32 10.667 32H65.92L117.909 291.989C124.864 326.762 155.669 352 191.125 352H437.333C443.221 352 448 347.221 448 341.333C448 335.445 443.221 330.666 437.333 330.666Z" fill="white"/>
<path d="M488 78.272C485.973 75.989 483.072 74.667 480 74.667H96C90.112 74.667 85.333 79.446 85.333 85.334C85.333 91.222 90.112 96 96 96H467.925L452.757 217.301C450.752 233.28 437.098 245.333 420.992 245.333H128C122.112 245.333 117.333 250.112 117.333 256C117.333 261.888 122.112 266.667 128 266.667H420.992C447.829 266.667 470.592 246.592 473.92 219.947L490.581 86.656C490.965 83.626 490.027 80.554 488 78.272Z" fill="white"/>
</g>
<defs>
<clipPath id="clip0">
<rect width="490.666" height="490.666" fill="white"/>
</clipPath>
</defs>
</svg>
