<svg width="512" height="450" viewBox="0 0 512 450" fill="none" xmlns="http://www.w3.org/2000/svg">
<path d="M337.034 389.796C337.869 389.935 338.699 390.003 339.518 390.003C346.718 390.003 353.073 384.803 354.296 377.466L369.296 287.466C370.658 279.295 365.138 271.566 356.966 270.204C348.794 268.838 341.066 274.362 339.704 282.534L324.704 372.534C323.342 380.706 328.862 388.435 337.034 389.796Z" fill="black"/>
<path d="M158.704 377.466C159.927 384.803 166.281 390.003 173.482 390.003C174.301 390.003 175.131 389.936 175.966 389.796C184.138 388.434 189.658 380.706 188.296 372.534L173.296 282.534C171.934 274.362 164.207 268.843 156.034 270.204C147.862 271.566 142.342 279.294 143.704 287.466L158.704 377.466Z" fill="black"/>
<path d="M497 150H444.209L328.713 5.62995C323.539 -0.837049 314.1 -1.88805 307.63 3.28795C301.161 8.46295 300.112 17.9019 305.288 24.3709L405.791 150H106.209L206.713 24.3709C211.888 17.9019 210.839 8.46195 204.371 3.28795C197.901 -1.88805 188.462 -0.838049 183.288 5.62995L67.791 150H15C6.716 150 0 156.716 0 165V225C0 233.284 6.716 240 15 240H33.686L90.578 439.121C92.417 445.561 98.303 450 105 450H407C413.697 450 419.583 445.561 421.423 439.121L478.314 240H497C505.284 240 512 233.284 512 225V165C512 156.716 505.284 150 497 150ZM395.686 420H116.314L64.886 240H447.115L395.686 420ZM482 210C430.615 210 78.68 210 30 210V180H482V210Z" fill="black"/>
<path d="M256 390C264.284 390 271 383.284 271 375V285C271 276.716 264.284 270 256 270C247.716 270 241 276.716 241 285V375C241 383.285 247.716 390 256 390Z" fill="black"/>
</svg>
