<svg width="25" height="25" viewBox="0 0 25 25" fill="none" xmlns="http://www.w3.org/2000/svg">
<path d="M2.71314 2.71296C6.33084 -0.904254 12.2175 -0.904401 15.8354 2.71301C19.0887 5.96679 19.4389 11.0682 16.7896 14.7176L18.3114 16.2391C18.8449 15.9837 19.5196 16.0661 19.9791 16.5257L24.2838 20.8309C25.2383 21.7847 25.2391 23.3293 24.2841 24.2837C23.33 25.2383 21.7855 25.2387 20.8312 24.2838L16.5258 19.9789C16.0666 19.5195 15.9839 18.8448 16.2393 18.3112L14.7177 16.7893C11.0674 19.4392 5.96644 19.088 2.71314 15.8352C-0.904219 12.2174 -0.904219 6.33081 2.71314 2.71296ZM17.2165 19.2883L21.522 23.5932C22.0942 24.1659 23.0205 24.1664 23.5935 23.593C24.1662 23.0207 24.1666 22.0944 23.5934 21.5216L19.2885 17.2163C19.0982 17.0259 18.7884 17.0259 18.5981 17.2163L17.2166 18.5979C17.0261 18.7882 17.0261 19.098 17.2165 19.2883ZM16.8712 17.5619L17.562 16.8711L16.1714 15.4807C16.0623 15.6018 15.9502 15.7204 15.8354 15.8352C15.7206 15.95 15.602 16.0621 15.4809 16.1712L16.8712 17.5619ZM3.40381 15.1446C6.63997 18.3802 11.882 18.4078 15.1448 15.1446C18.4038 11.886 18.3844 6.64369 15.1448 3.40363C11.9081 0.167321 6.64109 0.166783 3.40386 3.40363C0.167307 6.64062 0.167307 11.9076 3.40381 15.1446Z" fill="white"/>
</svg>
