<svg width="117" height="117" viewBox="0 0 117 117" fill="none" xmlns="http://www.w3.org/2000/svg">
<path d="M109.37 45.7826H99.8468C99.0481 43.1755 98.0028 40.6575 96.7336 38.259L103.461 31.5315C104.901 30.0919 105.694 28.1741 105.694 26.1317C105.694 24.0918 104.901 22.174 103.461 20.7344L96.263 13.5364C93.3863 10.6597 88.3503 10.6521 85.4685 13.5364L78.741 20.2639C76.345 18.9947 73.8245 17.9519 71.2174 17.1507V7.63043C71.2174 3.42352 67.7939 0 63.587 0H53.413C49.2061 0 45.7826 3.42352 45.7826 7.63043V17.1532C43.1755 17.9544 40.6575 18.9972 38.259 20.2664L31.529 13.5389C28.5531 10.5631 23.7103 10.5631 20.7344 13.5389L13.5338 20.737C10.5605 23.7128 10.5605 28.5556 13.5338 31.5315L20.2613 38.2615C18.9922 40.6575 17.9493 43.1781 17.1481 45.7852H7.63043C3.42352 45.7852 0 49.2087 0 53.4156V63.5895C0 67.7939 3.42352 71.2174 7.63043 71.2174H17.1532C17.9544 73.8245 18.9972 76.3425 20.2664 78.741L13.5389 85.471C10.5631 88.4469 10.5631 93.2897 13.5389 96.2656L20.737 103.466C23.7128 106.439 28.5556 106.439 31.5315 103.466L38.2615 96.7387C40.6575 98.0078 43.1781 99.0507 45.7852 99.8519V109.37C45.7852 113.576 49.2087 117 53.4156 117H63.5895C67.7964 117 71.2199 113.576 71.2199 109.37V99.8468C73.827 99.0456 76.3476 98.0028 78.7435 96.7336L85.471 103.464C88.3553 106.345 93.3914 106.34 96.2656 103.464L103.464 96.2656C104.903 94.826 105.697 92.9082 105.697 90.8683C105.697 88.8259 104.903 86.9107 103.464 85.471L96.7361 78.741C98.0053 76.345 99.0481 73.8245 99.8493 71.2174H109.37C113.576 71.2174 117 67.7939 117 63.587V53.413C117 49.2061 113.576 45.7826 109.37 45.7826ZM111.913 63.587C111.913 64.9884 110.774 66.1304 109.37 66.1304H97.9239C96.7641 66.1304 95.7518 66.9164 95.4618 68.038C94.5614 71.5099 93.1905 74.824 91.3821 77.8864C90.7945 78.886 90.9548 80.1577 91.7738 80.9767L99.862 89.0675C100.34 89.5457 100.605 90.1841 100.605 90.8683C100.605 91.5525 100.34 92.1909 99.862 92.6691L92.664 99.8671C91.7076 100.823 90.0213 100.823 89.0624 99.8671L80.9742 91.7789C80.1552 90.9573 78.8834 90.7996 77.8813 91.3872C74.824 93.193 71.5099 94.5665 68.0355 95.4644C66.9164 95.7518 66.1304 96.7641 66.1304 97.9239V109.37C66.1304 110.771 64.991 111.913 63.587 111.913H53.413C52.0116 111.913 50.8696 110.771 50.8696 109.37V97.9239C50.8696 96.7641 50.0836 95.7518 48.962 95.4618C45.4901 94.564 42.176 93.193 39.1136 91.3846C38.7117 91.1455 38.2666 91.0311 37.8215 91.0311C37.1628 91.0311 36.5116 91.2854 36.0207 91.7763L27.9325 99.8646C26.938 100.857 25.3254 100.857 24.3309 99.8646L17.1329 92.6665C16.1384 91.672 16.1384 90.0569 17.1329 89.065L25.2211 80.9767C26.0427 80.1552 26.2029 78.8834 25.6128 77.8864C23.807 74.824 22.4335 71.5124 21.5356 68.038C21.2482 66.9164 20.2359 66.1304 19.0761 66.1304H7.63043C6.22898 66.1304 5.08696 64.9884 5.08696 63.587V53.413C5.08696 52.0116 6.22898 50.8696 7.63043 50.8696H19.0761C20.2359 50.8696 21.2482 50.0836 21.5382 48.962C22.436 45.4901 23.807 42.176 25.6154 39.1136C26.2055 38.114 26.0452 36.8423 25.2237 36.0233L17.1354 27.935C16.1435 26.9431 16.1435 25.328 17.1354 24.3335L24.3335 17.1354C25.328 16.1409 26.9405 16.1435 27.935 17.1354L36.0233 25.2237C36.8448 26.0452 38.114 26.208 39.1136 25.6154C42.176 23.8095 45.4876 22.436 48.962 21.5382C50.0836 21.2482 50.8696 20.2359 50.8696 19.0761V7.63043C50.8696 6.22898 52.0116 5.08696 53.413 5.08696H63.587C64.991 5.08696 66.1304 6.22898 66.1304 7.63043V19.0761C66.1304 20.2359 66.9164 21.2482 68.038 21.5382C71.5124 22.436 74.8266 23.8095 77.8838 25.6154C78.886 26.2055 80.1577 26.0478 80.9767 25.2237L89.065 17.1354C90.0239 16.174 91.7102 16.1765 92.6665 17.1354L99.8646 24.3335C100.343 24.8116 100.607 25.4526 100.607 26.1342C100.607 26.8159 100.343 27.4568 99.8646 27.935L91.7763 36.0233C90.9573 36.8448 90.7945 38.1166 91.3846 39.1136C93.193 42.176 94.564 45.4876 95.4644 48.962C95.7518 50.0836 96.7641 50.8696 97.9239 50.8696H109.37C110.774 50.8696 111.913 52.0116 111.913 53.413V63.587V63.587Z" fill="#F3F3F3"/>
<path d="M58.5 35.6086C45.8793 35.6086 35.6087 45.8792 35.6087 58.4999C35.6087 71.1207 45.8793 81.3912 58.5 81.3912C71.1233 81.3912 81.3913 71.1207 81.3913 58.4999C81.3913 45.8792 71.1233 35.6086 58.5 35.6086ZM58.5 76.3043C48.6822 76.3043 40.6957 68.3178 40.6957 58.4999C40.6957 48.6821 48.6822 40.6956 58.5 40.6956C68.3153 40.6956 76.3043 48.6821 76.3043 58.4999C76.3043 68.3178 68.3153 76.3043 58.5 76.3043Z" fill="#F3F3F3"/>
</svg>
